<?xml version="1.0" encoding="UTF-8"?>
<!DOCTYPE svg PUBLIC "-//W3C//DTD SVG 1.1//EN" "http://www.w3.org/Graphics/SVG/1.1/DTD/svg11.dtd">
<svg xmlns="http://www.w3.org/2000/svg" version="1.1" width="2046px" height="802px" style="shape-rendering:geometricPrecision; text-rendering:geometricPrecision; image-rendering:optimizeQuality; fill-rule:evenodd; clip-rule:evenodd" xmlns:xlink="http://www.w3.org/1999/xlink">
<g><path style="opacity:1" fill="#fefefe" d="M -0.5,-0.5 C 681.5,-0.5 1363.5,-0.5 2045.5,-0.5C 2045.5,266.833 2045.5,534.167 2045.5,801.5C 1363.5,801.5 681.5,801.5 -0.5,801.5C -0.5,534.167 -0.5,266.833 -0.5,-0.5 Z"/></g>
<g><path style="opacity:1" fill="#191818" d="M 881.5,18.5 C 883.604,18.2011 885.604,18.5344 887.5,19.5C 889.433,24.5319 891.766,29.3652 894.5,34C 875.394,37.6323 859.561,46.799 847,61.5C 839.471,73.7537 841.638,83.9204 853.5,92C 860.798,93.7836 868.131,93.7836 875.5,92C 891.622,86.6776 908.122,83.1776 925,81.5C 947.19,81.366 960.856,92.0326 966,113.5C 967.136,134.399 959.636,151.565 943.5,165C 930.631,175.436 916.298,183.269 900.5,188.5C 897.136,183.614 894.136,178.448 891.5,173C 909.037,168.151 924.203,159.318 937,146.5C 944.012,138.819 947.345,129.819 947,119.5C 942.944,107.431 934.61,101.764 922,102.5C 918.833,102.667 915.667,102.833 912.5,103C 898.301,107.133 883.968,110.8 869.5,114C 839.092,116.583 823.592,102.749 823,72.5C 825.473,61.2175 830.806,51.5509 839,43.5C 851.467,32.1865 865.634,23.8532 881.5,18.5 Z"/></g>
<g><path style="opacity:1" fill="#191818" d="M 1331.5,51.5 C 1333.6,51.2011 1335.6,51.5344 1337.5,52.5C 1339.43,57.5319 1341.77,62.3652 1344.5,67C 1325.39,70.6323 1309.56,79.799 1297,94.5C 1289.47,106.754 1291.64,116.92 1303.5,125C 1310.8,126.784 1318.13,126.784 1325.5,125C 1341.62,119.678 1358.12,116.178 1375,114.5C 1397.19,114.366 1410.86,125.033 1416,146.5C 1417.14,167.399 1409.64,184.565 1393.5,198C 1380.63,208.436 1366.3,216.269 1350.5,221.5C 1347.14,216.614 1344.14,211.448 1341.5,206C 1359.04,201.151 1374.2,192.318 1387,179.5C 1394.01,171.819 1397.34,162.819 1397,152.5C 1392.94,140.431 1384.61,134.764 1372,135.5C 1368.83,135.667 1365.67,135.833 1362.5,136C 1348.3,140.133 1333.97,143.8 1319.5,147C 1289.09,149.583 1273.59,135.749 1273,105.5C 1275.47,94.2175 1280.81,84.5509 1289,76.5C 1301.47,65.1865 1315.63,56.8532 1331.5,51.5 Z"/></g>
<g><path style="opacity:1" fill="#191818" d="M 766.5,110.5 C 788.968,108.653 807.468,116.319 822,133.5C 827.327,140.152 832.16,147.152 836.5,154.5C 810.67,176.159 784.67,197.659 758.5,219C 767.665,230.18 778.998,238.18 792.5,243C 809.739,245.364 824.739,240.697 837.5,229C 848.599,219.076 857.599,207.576 864.5,194.5C 869.014,197.591 873.347,200.925 877.5,204.5C 866.236,226.562 849.902,243.729 828.5,256C 801.251,267.441 776.251,263.774 753.5,245C 730.943,226.054 718.276,201.887 715.5,172.5C 718.66,140.348 735.66,119.682 766.5,110.5 Z"/></g>
<g><path style="opacity:1" fill="#fcfcfc" d="M 765.5,128.5 C 785.313,127.81 800.313,135.976 810.5,153C 810.241,154.261 809.574,155.261 808.5,156C 788.043,172.122 767.876,188.622 748,205.5C 736.831,191.659 732.831,175.993 736,158.5C 741.326,144.008 751.159,134.008 765.5,128.5 Z"/></g>
<g><path style="opacity:1" fill="#191818" d="M 1216.5,143.5 C 1238.97,141.653 1257.47,149.319 1272,166.5C 1277.33,173.152 1282.16,180.152 1286.5,187.5C 1260.67,209.159 1234.67,230.659 1208.5,252C 1217.67,263.18 1229,271.18 1242.5,276C 1259.74,278.364 1274.74,273.697 1287.5,262C 1298.6,252.076 1307.6,240.576 1314.5,227.5C 1319.01,230.591 1323.35,233.925 1327.5,237.5C 1316.24,259.562 1299.9,276.729 1278.5,289C 1251.28,300.355 1226.28,296.688 1203.5,278C 1184.22,261.721 1172.05,241.221 1167,216.5C 1164.3,179.049 1180.8,154.716 1216.5,143.5 Z"/></g>
<g><path style="opacity:1" fill="#fcfcfc" d="M 1215.5,161.5 C 1235.31,160.81 1250.31,168.976 1260.5,186C 1260.24,187.261 1259.57,188.261 1258.5,189C 1238.04,205.122 1217.88,221.622 1198,238.5C 1186.83,224.659 1182.83,208.993 1186,191.5C 1191.33,177.008 1201.16,167.008 1215.5,161.5 Z"/></g>
<g><path style="opacity:1" fill="#191818" d="M 1053.5,176.5 C 1054.68,176.281 1055.68,176.614 1056.5,177.5C 1097.36,227.188 1138.02,277.022 1178.5,327C 1186.28,334.791 1194.61,335.457 1203.5,329C 1207.02,325.651 1210.35,322.151 1213.5,318.5C 1217.69,321.852 1221.35,325.686 1224.5,330C 1217.53,341.304 1207.87,349.304 1195.5,354C 1181.57,355.789 1170.07,351.289 1161,340.5C 1120.17,290.333 1079.33,240.167 1038.5,190C 1043.69,185.634 1048.69,181.134 1053.5,176.5 Z"/></g>
<g><path style="opacity:1" fill="#191818" d="M 673.5,186.5 C 675.39,186.297 676.89,186.963 678,188.5C 680.608,192.707 682.608,197.04 684,201.5C 662.336,208.171 645.67,221.171 634,240.5C 628.11,258.603 630.443,275.603 641,291.5C 650.259,305.427 662.093,316.593 676.5,325C 695.341,331.796 712.675,329.129 728.5,317C 738.823,308.345 747.323,298.178 754,286.5C 758.553,290.007 762.72,293.84 766.5,298C 752.788,324.374 731.454,341.041 702.5,348C 683.289,350.262 665.955,345.596 650.5,334C 631.588,319.353 618.755,300.52 612,277.5C 607.068,245.532 617.901,220.366 644.5,202C 653.656,195.757 663.323,190.59 673.5,186.5 Z"/></g>
<g><path style="opacity:1" fill="#191818" d="M 1854.5,186.5 C 1855.76,187.514 1856.43,189.014 1856.5,191C 1859.09,208.351 1861.75,225.684 1864.5,243C 1860.34,247.653 1855.68,251.819 1850.5,255.5C 1845.42,238.005 1840.42,220.505 1835.5,203C 1842.28,197.954 1848.61,192.454 1854.5,186.5 Z"/></g>
<g><path style="opacity:1" fill="#191818" d="M 1901.5,249.5 C 1923.97,247.653 1942.47,255.319 1957,272.5C 1962.33,279.152 1967.16,286.152 1971.5,293.5C 1945.67,315.159 1919.67,336.659 1893.5,358C 1902.67,369.18 1914,377.18 1927.5,382C 1944.74,384.364 1959.74,379.697 1972.5,368C 1983.6,358.076 1992.6,346.576 1999.5,333.5C 2004.01,336.591 2008.35,339.925 2012.5,343.5C 2001.24,365.562 1984.9,382.729 1963.5,395C 1936.25,406.441 1911.25,402.774 1888.5,384C 1865.94,365.054 1853.28,340.887 1850.5,311.5C 1853.66,279.348 1870.66,258.682 1901.5,249.5 Z"/></g>
<g><path style="opacity:1" fill="#fcfcfc" d="M 1900.5,267.5 C 1920.31,266.81 1935.31,274.976 1945.5,292C 1945.24,293.261 1944.57,294.261 1943.5,295C 1923.04,311.122 1902.88,327.622 1883,344.5C 1871.83,330.659 1867.83,314.993 1871,297.5C 1876.33,283.008 1886.16,273.008 1900.5,267.5 Z"/></g>
<g><path style="opacity:1" fill="#191818" d="M 1032.5,293.5 C 1055.62,292.141 1074.45,300.475 1089,318.5C 1109.17,343.333 1129.33,368.167 1149.5,393C 1143.91,397.38 1138.41,401.88 1133,406.5C 1128.67,401.5 1124.33,396.5 1120,391.5C 1117.81,412.725 1108.64,430.225 1092.5,444C 1068.69,459.707 1048.19,456.207 1031,433.5C 1024.04,422.109 1022.71,410.109 1027,397.5C 1031.27,387.901 1037.1,379.401 1044.5,372C 1055.67,362.167 1066.83,352.333 1078,342.5C 1055.69,306.231 1030.36,304.231 1002,336.5C 996.969,343.225 992.969,350.558 990,358.5C 985.148,354.974 980.314,351.474 975.5,348C 986.613,321.383 1005.61,303.217 1032.5,293.5 Z"/></g>
<g><path style="opacity:1" fill="#191818" d="M 537.5,296.5 C 557.515,296.014 574.849,302.514 589.5,316C 612.643,341.468 634.643,367.801 655.5,395C 651.864,398.966 647.864,402.632 643.5,406C 641.945,407.289 640.279,407.956 638.5,408C 620.333,385.833 602.167,363.667 584,341.5C 574.902,330.057 563.402,322.224 549.5,318C 529.371,317.433 515.538,326.599 508,345.5C 505.05,353.955 503.716,362.621 504,371.5C 527.667,400.5 551.333,429.5 575,458.5C 575.667,459.5 575.667,460.5 575,461.5C 570.277,465.894 565.277,469.894 560,473.5C 526.81,434.817 494.31,395.484 462.5,355.5C 467.719,351.296 472.886,346.963 478,342.5C 482.688,347.687 487.188,353.02 491.5,358.5C 492.861,327.178 508.195,306.511 537.5,296.5 Z"/></g>
<g><path style="opacity:1" fill="#191818" d="M 1807.5,322.5 C 1811.82,326.573 1815.82,331.073 1819.5,336C 1806.46,347.378 1793.12,358.378 1779.5,369C 1798.12,391.742 1816.62,414.575 1835,437.5C 1839.53,442.367 1844.37,446.867 1849.5,451C 1856.97,454.474 1864.3,454.141 1871.5,450C 1879.67,443.531 1886.84,436.031 1893,427.5C 1896.37,431.203 1900.03,434.536 1904,437.5C 1904.67,438.5 1904.67,439.5 1904,440.5C 1894.79,455.719 1881.95,466.552 1865.5,473C 1853.3,475.199 1842.3,472.532 1832.5,465C 1827.7,461.201 1823.2,457.034 1819,452.5C 1800.14,429.942 1781.64,407.108 1763.5,384C 1761.72,384.044 1760.05,384.711 1758.5,386C 1752.96,391.211 1747.12,396.044 1741,400.5C 1737.17,396 1733.33,391.5 1729.5,387C 1736.86,381.302 1743.86,375.302 1750.5,369C 1742.35,358.844 1734.18,348.678 1726,338.5C 1725.49,337.004 1725.99,335.837 1727.5,335C 1732.62,331.547 1737.45,327.714 1742,323.5C 1750.3,334.3 1759.13,344.633 1768.5,354.5C 1782.13,344.536 1795.13,333.869 1807.5,322.5 Z"/></g>
<g><path style="opacity:1" fill="#191818" d="M 889.5,327.5 C 904.51,326.011 911.343,332.678 910,347.5C 904.605,357.409 896.772,359.909 886.5,355C 881.048,349.972 879.215,343.806 881,336.5C 883.362,332.973 886.196,329.973 889.5,327.5 Z"/></g>
<g><path style="opacity:1" fill="#fcfcfc" d="M 1088.5,353.5 C 1095.14,360.975 1101.64,368.642 1108,376.5C 1107.55,388.304 1104.88,399.637 1100,410.5C 1094.78,420.054 1087.28,427.22 1077.5,432C 1065.37,436.032 1055.87,432.532 1049,421.5C 1045.18,416.033 1043.84,410.033 1045,403.5C 1047.3,396.887 1050.64,390.887 1055,385.5C 1066.37,374.967 1077.53,364.3 1088.5,353.5 Z"/></g>
<g><path style="opacity:1" fill="#191818" d="M 932.5,371.5 C 965.126,410.061 997.292,449.061 1029,488.5C 1029.67,489.5 1029.67,490.5 1029,491.5C 1024.5,495.333 1020,499.167 1015.5,503C 1013.1,503.63 1011.26,502.797 1010,500.5C 979.378,462.21 948.378,424.21 917,386.5C 916.383,385.551 916.549,384.718 917.5,384C 922.982,380.346 927.982,376.179 932.5,371.5 Z"/></g>
<g><path style="opacity:1" fill="#191818" d="M 416.5,396.5 C 438.968,394.653 457.468,402.319 472,419.5C 477.327,426.152 482.16,433.152 486.5,440.5C 460.67,462.159 434.67,483.659 408.5,505C 417.665,516.18 428.998,524.18 442.5,529C 459.739,531.364 474.739,526.697 487.5,515C 498.599,505.076 507.599,493.576 514.5,480.5C 519.014,483.591 523.347,486.925 527.5,490.5C 516.236,512.562 499.902,529.729 478.5,542C 451.213,553.435 426.213,549.769 403.5,531C 384.221,514.721 372.054,494.221 367,469.5C 364.301,432.049 380.801,407.716 416.5,396.5 Z"/></g>
<g><path style="opacity:1" fill="#191818" d="M 891.5,409.5 C 893.39,409.297 894.89,409.963 896,411.5C 898.608,415.707 900.608,420.04 902,424.5C 880.336,431.171 863.67,444.171 852,463.5C 846.11,481.603 848.443,498.603 859,514.5C 868.259,528.427 880.093,539.593 894.5,548C 913.341,554.796 930.675,552.129 946.5,540C 956.823,531.345 965.323,521.178 972,509.5C 976.553,513.007 980.72,516.84 984.5,521C 970.788,547.374 949.454,564.041 920.5,571C 901.289,573.262 883.955,568.596 868.5,557C 849.588,542.353 836.755,523.52 830,500.5C 825.068,468.532 835.901,443.366 862.5,425C 871.656,418.757 881.323,413.59 891.5,409.5 Z"/></g>
<g><path style="opacity:1" fill="#fcfcfc" d="M 415.5,414.5 C 435.313,413.81 450.313,421.976 460.5,439C 460.241,440.261 459.574,441.261 458.5,442C 438.043,458.122 417.876,474.622 398,491.5C 386.831,477.659 382.831,461.993 386,444.5C 391.326,430.008 401.159,420.008 415.5,414.5 Z"/></g>
<g><path style="opacity:1" fill="#191818" d="M 1689.5,421.5 C 1709.52,421.014 1726.85,427.514 1741.5,441C 1764.64,466.468 1786.64,492.801 1807.5,520C 1803.86,523.966 1799.86,527.632 1795.5,531C 1793.95,532.289 1792.28,532.956 1790.5,533C 1772.33,510.833 1754.17,488.667 1736,466.5C 1726.88,455.033 1715.38,447.2 1701.5,443C 1681.37,442.433 1667.54,451.599 1660,470.5C 1657.05,478.955 1655.72,487.621 1656,496.5C 1679.67,525.5 1703.33,554.5 1727,583.5C 1727.67,584.5 1727.67,585.5 1727,586.5C 1722.28,590.894 1717.28,594.894 1712,598.5C 1678.81,559.817 1646.31,520.484 1614.5,480.5C 1619.72,476.296 1624.89,471.963 1630,467.5C 1634.69,472.687 1639.19,478.02 1643.5,483.5C 1644.86,452.178 1660.19,431.511 1689.5,421.5 Z"/></g>
<g><path style="opacity:1" fill="#191818" d="M 270.5,432.5 C 285.51,431.011 292.343,437.678 291,452.5C 285.605,462.409 277.772,464.909 267.5,460C 262.048,454.972 260.215,448.806 262,441.5C 264.362,437.973 267.196,434.973 270.5,432.5 Z"/></g>
<g><path style="opacity:1" fill="#191818" d="M 313.5,476.5 C 346.126,515.061 378.292,554.061 410,593.5C 410.667,594.5 410.667,595.5 410,596.5C 405.5,600.333 401,604.167 396.5,608C 394.097,608.63 392.263,607.797 391,605.5C 360.378,567.21 329.378,529.21 298,491.5C 297.383,490.551 297.549,489.718 298.5,489C 303.982,485.346 308.982,481.179 313.5,476.5 Z"/></g>
<g><path style="opacity:1" fill="#191818" d="M 272.5,515.5 C 274.39,515.297 275.89,515.963 277,517.5C 279.608,521.707 281.608,526.04 283,530.5C 261.336,537.171 244.67,550.171 233,569.5C 227.11,587.603 229.443,604.603 240,620.5C 249.259,634.427 261.093,645.593 275.5,654C 294.341,660.796 311.675,658.129 327.5,646C 337.823,637.345 346.323,627.178 353,615.5C 357.553,619.007 361.72,622.84 365.5,627C 351.788,653.374 330.454,670.041 301.5,677C 282.289,679.262 264.955,674.596 249.5,663C 230.588,648.353 217.755,629.52 211,606.5C 206.068,574.532 216.901,549.366 243.5,531C 252.656,524.757 262.323,519.59 272.5,515.5 Z"/></g>
<g><path style="opacity:1" fill="#191818" d="M 758.5,520.5 C 777.782,518.044 795.449,522.21 811.5,533C 833.752,548.673 847.586,569.84 853,596.5C 854.934,639.791 834.768,666.291 792.5,676C 776.463,678.126 761.463,675.126 747.5,667C 714.671,646.177 699.171,616.343 701,577.5C 709.451,547.548 728.618,528.548 758.5,520.5 Z"/></g>
<g><path style="opacity:1" fill="#191818" d="M 1561.5,527.5 C 1584.62,526.141 1603.45,534.475 1618,552.5C 1638.17,577.333 1658.33,602.167 1678.5,627C 1672.91,631.38 1667.41,635.88 1662,640.5C 1657.67,635.5 1653.33,630.5 1649,625.5C 1646.81,646.721 1637.64,664.221 1621.5,678C 1597.69,693.707 1577.19,690.207 1560,667.5C 1553.04,656.109 1551.71,644.109 1556,631.5C 1560.27,621.901 1566.1,613.401 1573.5,606C 1584.67,596.167 1595.83,586.333 1607,576.5C 1584.69,540.231 1559.36,538.231 1531,570.5C 1525.97,577.225 1521.97,584.558 1519,592.5C 1514.15,588.974 1509.31,585.474 1504.5,582C 1515.61,555.383 1534.61,537.217 1561.5,527.5 Z"/></g>
<g><path style="opacity:1" fill="#191818" d="M 1194.5,528.5 C 1198.82,532.573 1202.82,537.073 1206.5,542C 1193.46,553.378 1180.12,564.378 1166.5,575C 1185.12,597.742 1203.62,620.575 1222,643.5C 1226.53,648.367 1231.37,652.867 1236.5,657C 1243.97,660.474 1251.3,660.141 1258.5,656C 1266.67,649.531 1273.84,642.031 1280,633.5C 1283.37,637.203 1287.03,640.536 1291,643.5C 1291.67,644.5 1291.67,645.5 1291,646.5C 1281.7,662.147 1268.53,672.981 1251.5,679C 1239.64,681.036 1228.98,678.369 1219.5,671C 1214.7,667.201 1210.2,663.034 1206,658.5C 1187.14,635.942 1168.64,613.108 1150.5,590C 1148.72,590.044 1147.05,590.711 1145.5,592C 1139.96,597.211 1134.12,602.044 1128,606.5C 1124.17,602 1120.33,597.5 1116.5,593C 1123.86,587.302 1130.86,581.302 1137.5,575C 1129.35,564.844 1121.18,554.678 1113,544.5C 1112.49,543.004 1112.99,541.837 1114.5,541C 1119.62,537.547 1124.45,533.714 1129,529.5C 1137.3,540.3 1146.13,550.633 1155.5,560.5C 1169.13,550.536 1182.13,539.869 1194.5,528.5 Z"/></g>
<g><path style="opacity:1" fill="#fdfdfd" d="M 756.5,539.5 C 771.895,537.682 785.895,541.182 798.5,550C 812.225,560.627 822.725,573.794 830,589.5C 839.964,619.401 830.798,641.234 802.5,655C 786.865,659.838 772.198,657.838 758.5,649C 739.204,635.901 726.704,618.067 721,595.5C 718.375,567.632 730.209,548.965 756.5,539.5 Z"/></g>
<g><path style="opacity:1" fill="#191818" d="M 120.5,562.5 C 122.144,562.286 123.644,562.62 125,563.5C 127.5,568.5 130,573.5 132.5,578.5C 110.841,584.355 92.3406,595.355 77,611.5C 62.5548,630.675 64.7214,647.841 83.5,663C 88.9599,666.653 94.9599,668.153 101.5,667.5C 108.253,667.383 114.92,666.55 121.5,665C 137.111,661.464 152.778,658.131 168.5,655C 185.03,652.717 200.697,655.384 215.5,663C 239.182,681.218 245.682,704.384 235,732.5C 228.771,745.729 219.938,756.895 208.5,766C 193.004,778.249 175.67,787.082 156.5,792.5C 155.833,792.167 155.167,791.833 154.5,791.5C 152.131,786.104 149.798,780.771 147.5,775.5C 176.843,769.097 199.676,753.43 216,728.5C 224.053,707.447 218.553,690.947 199.5,679C 187.809,674.353 175.809,673.353 163.5,676C 146.721,680.689 129.721,684.356 112.5,687C 84.1299,692.065 63.6299,681.898 51,656.5C 44.1251,635.747 47.7918,617.08 62,600.5C 78.3744,582.904 97.8744,570.237 120.5,562.5 Z"/></g>
<g><path style="opacity:1" fill="#191818" d="M 611.5,562.5 C 613.144,562.286 614.644,562.62 616,563.5C 618.5,568.5 621,573.5 623.5,578.5C 601.841,584.355 583.341,595.355 568,611.5C 553.555,630.675 555.721,647.841 574.5,663C 579.96,666.653 585.96,668.153 592.5,667.5C 599.253,667.383 605.92,666.55 612.5,665C 628.111,661.464 643.778,658.131 659.5,655C 676.03,652.717 691.697,655.384 706.5,663C 730.875,681.996 737.042,705.829 725,734.5C 718.714,746.787 710.214,757.287 699.5,766C 684.004,778.249 666.67,787.082 647.5,792.5C 646.833,792.167 646.167,791.833 645.5,791.5C 643.131,786.104 640.798,780.771 638.5,775.5C 663.246,769.713 684.08,757.379 701,738.5C 716.727,715.121 713.227,695.288 690.5,679C 678.809,674.353 666.809,673.353 654.5,676C 638.329,680.434 621.996,684.101 605.5,687C 577.377,692.657 556.544,683.157 543,658.5C 534.886,637.187 538.219,617.853 553,600.5C 569.374,582.904 588.874,570.237 611.5,562.5 Z"/></g>
<g><path style="opacity:1" fill="#191818" d="M 1426.5,562.5 C 1428.14,562.286 1429.64,562.62 1431,563.5C 1433.5,568.5 1436,573.5 1438.5,578.5C 1416.84,584.355 1398.34,595.355 1383,611.5C 1368.55,630.675 1370.72,647.841 1389.5,663C 1394.96,666.653 1400.96,668.153 1407.5,667.5C 1414.25,667.383 1420.92,666.55 1427.5,665C 1443.11,661.464 1458.78,658.131 1474.5,655C 1491.03,652.717 1506.7,655.384 1521.5,663C 1545.18,681.218 1551.68,704.384 1541,732.5C 1534.77,745.729 1525.94,756.895 1514.5,766C 1499,778.249 1481.67,787.082 1462.5,792.5C 1461.83,792.167 1461.17,791.833 1460.5,791.5C 1458.13,786.104 1455.8,780.771 1453.5,775.5C 1482.84,769.097 1505.68,753.43 1522,728.5C 1530.05,707.447 1524.55,690.947 1505.5,679C 1493.81,674.353 1481.81,673.353 1469.5,676C 1453.33,680.434 1437,684.101 1420.5,687C 1385.54,692.957 1363.37,679.124 1354,645.5C 1352.53,634.639 1354.2,624.306 1359,614.5C 1368.5,598.333 1381.33,585.5 1397.5,576C 1406.85,570.615 1416.52,566.115 1426.5,562.5 Z"/></g>
<g><path style="opacity:1" fill="#fcfcfc" d="M 1617.5,587.5 C 1624.14,594.975 1630.64,602.642 1637,610.5C 1636.55,622.304 1633.88,633.637 1629,644.5C 1623.78,654.054 1616.28,661.22 1606.5,666C 1594.37,670.032 1584.87,666.532 1578,655.5C 1574.18,650.033 1572.84,644.033 1574,637.5C 1576.3,630.887 1579.64,624.887 1584,619.5C 1595.37,608.967 1606.53,598.3 1617.5,587.5 Z"/></g>
<g><path style="opacity:1" fill="#191818" d="M 1084.5,622.5 C 1106.97,620.653 1125.47,628.319 1140,645.5C 1145.33,652.152 1150.16,659.152 1154.5,666.5C 1128.67,688.159 1102.67,709.659 1076.5,731C 1085.67,742.18 1097,750.18 1110.5,755C 1127.74,757.364 1142.74,752.697 1155.5,741C 1166.6,731.076 1175.6,719.576 1182.5,706.5C 1187.01,709.591 1191.35,712.925 1195.5,716.5C 1184.24,738.562 1167.9,755.729 1146.5,768C 1119.28,779.355 1094.28,775.688 1071.5,757C 1048.94,738.054 1036.28,713.887 1033.5,684.5C 1036.66,652.348 1053.66,631.682 1084.5,622.5 Z"/></g>
<g><path style="opacity:1" fill="#fcfcfc" d="M 1083.5,640.5 C 1103.31,639.81 1118.31,647.976 1128.5,665C 1128.24,666.261 1127.57,667.261 1126.5,668C 1106.04,684.122 1085.88,700.622 1066,717.5C 1054.83,703.659 1050.83,687.993 1054,670.5C 1059.33,656.008 1069.16,646.008 1083.5,640.5 Z"/></g>
</svg>
